HIERARCHY
ROOT joint_Root
{
	OFFSET 0.0 0.0 0.0
	CHANNELS 6 Xposition Yposition Zposition Zrotation Xrotation Yrotation 
	JOINT Hips
	{
		OFFSET 4.5925 91.4895 -427.239
		CHANNELS 6 Xposition Yposition Zposition Zrotation Xrotation Yrotation 
		JOINT Spine
		{
			OFFSET 15.7357 0.0 0.0
			CHANNELS 6 Xposition Yposition Zposition Zrotation Xrotation Yrotation 
			JOINT Chest
			{
				OFFSET 8.98455 -0.406207 0.0
				CHANNELS 6 Xposition Yposition Zposition Zrotation Xrotation Yrotation 
				JOINT Neck
				{
					OFFSET 16.3773 0.0 0.0
					CHANNELS 6 Xposition Yposition Zposition Zrotation Xrotation Yrotation 
					JOINT Head
					{
						OFFSET 6.45672 0.0 0.0
						CHANNELS 6 Xposition Yposition Zposition Zrotation Xrotation Yrotation 
						End Site
						{
							OFFSET 0.0 0.0 0.0
						}
					}
				}
				JOINT Shoulder_L
				{
					OFFSET 12.9942 -0.242716 4.98039
					CHANNELS 6 Xposition Yposition Zposition Zrotation Xrotation Yrotation 
					JOINT UpperArm_L
					{
						OFFSET 5.34809 0.0 0.0
						CHANNELS 6 Xposition Yposition Zposition Zrotation Xrotation Yrotation 
						JOINT LowerArm_L
						{
							OFFSET 24.3286 1.87007e-05 0.0
							CHANNELS 6 Xposition Yposition Zposition Zrotation Xrotation Yrotation 
							JOINT Hand_L
							{
								OFFSET 22.2916 0.0 0.0
								CHANNELS 6 Xposition Yposition Zposition Zrotation Xrotation Yrotation 
								End Site
								{
									OFFSET 0.0 0.0 0.0
								}
							}
						}
					}
				}
				JOINT Shoulder_R
				{
					OFFSET 12.9945 -0.242716 -4.98039
					CHANNELS 6 Xposition Yposition Zposition Zrotation Xrotation Yrotation 
					JOINT UpperArm_R
					{
						OFFSET -5.34813 0.0 0.0
						CHANNELS 6 Xposition Yposition Zposition Zrotation Xrotation Yrotation 
						JOINT LowerArm_R
						{
							OFFSET -24.3289 0.000322201 0.0
							CHANNELS 6 Xposition Yposition Zposition Zrotation Xrotation Yrotation 
							JOINT Hand_R
							{
								OFFSET -22.2915 -0.000108084 0.0
								CHANNELS 6 Xposition Yposition Zposition Zrotation Xrotation Yrotation 
								End Site
								{
									OFFSET 0.0 0.0 0.0
								}
							}
						}
					}
				}
			}
		}
		JOINT UpperLeg_L
		{
			OFFSET -2.19248 -6.46944 0.0
			CHANNELS 6 Xposition Yposition Zposition Zrotation Xrotation Yrotation 
			JOINT LowerLeg_L
			{
				OFFSET 39.0811 0.0 -1.23785e-05
				CHANNELS 6 Xposition Yposition Zposition Zrotation Xrotation Yrotation 
				JOINT Foot_L
				{
					OFFSET 40.9854 0.0 -1.26872e-05
					CHANNELS 6 Xposition Yposition Zposition Zrotation Xrotation Yrotation 
					JOINT Toes_L
					{
						OFFSET 11.7543 0.0 0.0
						CHANNELS 6 Xposition Yposition Zposition Zrotation Xrotation Yrotation 
						End Site
						{
							OFFSET 0.0 0.0 0.0
						}
					}
				}
			}
		}
		JOINT UpperLeg_R
		{
			OFFSET -2.19251 6.46944 0.0
			CHANNELS 6 Xposition Yposition Zposition Zrotation Xrotation Yrotation 
			JOINT LowerLeg_R
			{
				OFFSET -39.0811 -0.00228153 -0.0401928
				CHANNELS 6 Xposition Yposition Zposition Zrotation Xrotation Yrotation 
				JOINT Foot_R
				{
					OFFSET -40.9854 0.0 0.0
					CHANNELS 6 Xposition Yposition Zposition Zrotation Xrotation Yrotation 
					JOINT Toes_R
					{
						OFFSET -11.7543 0.0 0.0
						CHANNELS 6 Xposition Yposition Zposition Zrotation Xrotation Yrotation 
						End Site
						{
							OFFSET 0.0 0.0 0.0
						}
					}
				}
			}
		}
	}
}
MOTION
Frames:	7
Frame Time:	0.0333333
0.000000 0.000000 0.000000 0.000000 0.000000 -0.000000 -1.937760 84.925200 504.145000 -90.409300 8.748810 -179.278000 15.735700 0.000005 -0.000001 104.170000 83.151700 -105.789000 8.984550 -0.406207 -0.000000 5.571170 3.375990 -3.398910 16.377300 -0.000001 -0.000001 -3.415060 -5.500450 1.424290 6.456720 -0.000001 -0.000000 -12.430300 -8.087710 0.931867 12.994200 -0.242716 4.980390 -91.616100 4.587120 -70.567800 5.348090 -0.000007 -0.000001 -66.457700 19.276800 3.864840 24.328600 0.000019 0.000005 3.918140 29.139200 -8.006830 22.291600 -0.000001 0.000005 9.996390 5.055340 6.119340 12.994500 -0.242716 -4.980390 88.657100 8.330460 -80.808900 -5.348130 -0.000001 -0.000004 -64.911700 36.947800 -14.566400 -24.328900 0.000322 -0.000009 -3.087090 -2.977920 -46.069800 -22.291500 -0.000108 -0.000004 23.105500 5.478310 -5.683370 -2.192480 -6.469440 -0.000000 -179.114000 -8.883370 -25.139100 39.081100 -0.000007 -0.000012 -0.288087 0.203509 54.762900 40.985400 -0.000006 -0.000013 -0.305987 -0.207205 -79.178200 11.754300 -0.000000 0.000003 -0.000208 -0.001911 -16.649600 -2.192510 6.469440 -0.000001 169.235000 0.818703 -179.112000 -39.081100 -0.002282 -0.040193 0.101585 -0.075814 52.372100 -40.985400 0.000008 0.000006 1.833310 -0.617153 -63.644300 -11.754300 -0.000006 -0.000006 -0.087447 -0.412281 -33.723300
0.000000 0.000000 0.000000 0.000000 0.000000 -0.000000 -2.225590 85.654100 500.970000 -89.802000 8.214550 -178.511000 15.735700 0.000005 -0.000001 100.351000 83.190600 -101.824000 8.984550 -0.406207 -0.000000 5.668720 2.468040 -3.063790 16.377300 -0.000001 -0.000001 -3.362790 -5.449250 0.855893 6.456720 -0.000001 -0.000000 -12.469700 -7.117420 -2.108420 12.994200 -0.242716 4.980390 -91.554600 4.537970 -71.067600 5.348090 -0.000007 -0.000001 -66.243400 19.976800 0.950064 24.328600 0.000019 0.000005 4.614880 27.193700 -10.017200 22.291600 -0.000001 0.000005 10.498700 5.079030 5.589860 12.994500 -0.242716 -4.980390 88.727400 7.864260 -80.778300 -5.348130 -0.000001 -0.000004 -66.386400 35.646700 -12.904100 -24.328900 0.000322 -0.000009 -5.095020 -5.448730 -43.192900 -22.291500 -0.000108 -0.000004 24.285100 5.466880 -5.254280 -2.192480 -6.469440 -0.000000 -178.591000 -8.502640 -20.443000 39.081100 -0.000007 -0.000012 -0.295715 0.230321 52.087200 40.985400 -0.000006 -0.000013 -0.096208 -0.260246 -80.369700 11.754300 -0.000000 0.000003 -0.000207 -0.001906 -16.649400 -2.192510 6.469440 -0.000001 170.779000 1.554220 175.608000 -39.081100 -0.002282 -0.040193 0.159338 -0.083970 61.730700 -40.985400 0.000008 0.000006 5.300260 -4.593380 -54.694300 -11.754300 -0.000006 -0.000006 -0.016905 -0.149497 -22.675800
0.000000 0.000000 0.000000 0.000000 0.000000 -0.000000 -2.387300 86.511300 497.983000 -89.313600 7.456560 -178.097000 15.735700 0.000005 -0.000001 95.379500 83.315200 -96.670700 8.984550 -0.406207 -0.000000 5.561480 1.275270 -2.641560 16.377300 -0.000001 -0.000001 -3.248950 -5.269030 0.226019 6.456720 -0.000001 -0.000000 -12.660400 -5.949520 -5.268420 12.994200 -0.242716 4.980390 -91.623400 4.906100 -71.665200 5.348090 -0.000007 -0.000001 -65.055700 21.991100 -2.699030 24.328600 0.000019 0.000005 4.981170 24.226400 -11.991900 22.291600 -0.000001 0.000005 9.977570 5.124750 4.539550 12.994500 -0.242716 -4.980390 88.721000 7.764620 -80.616400 -5.348130 -0.000001 -0.000004 -66.535300 35.280200 -11.661500 -24.328900 0.000322 -0.000009 -4.632660 -5.557750 -39.908900 -22.291500 -0.000108 -0.000004 22.684500 5.446610 -4.517970 -2.192480 -6.469440 -0.000000 -178.098000 -8.244300 -15.820700 39.081100 -0.000007 -0.000012 -0.268683 0.238541 48.401500 40.985400 -0.000006 -0.000013 0.265652 0.265775 -80.848400 11.754300 -0.000000 0.000003 -0.000196 -0.001823 -16.646400 -2.192510 6.469440 -0.000001 172.225000 3.085410 171.053000 -39.081100 -0.002282 -0.040193 0.172919 -0.068807 67.938900 -40.985400 0.000008 0.000006 4.617730 -6.282800 -56.606300 -11.754300 -0.000006 -0.000006 -0.018527 -0.158987 -23.066100
0.000000 0.000000 0.000000 0.000000 0.000000 -0.000000 -2.483600 87.442700 495.192000 -88.699000 6.598180 -178.030000 15.735700 0.000005 -0.000001 90.774900 83.474200 -91.777200 8.984550 -0.406207 -0.000000 5.286950 0.197799 -2.011300 16.377300 -0.000001 -0.000001 -3.195970 -5.192370 -0.513285 6.456720 -0.000001 -0.000000 -12.808500 -5.037840 -7.500060 12.994200 -0.242716 4.980390 -91.726000 5.424060 -72.318500 5.348090 -0.000007 -0.000001 -63.014100 24.775100 -7.111400 24.328600 0.000019 0.000005 5.703910 22.632700 -14.550400 22.291600 -0.000001 0.000005 9.831330 5.145560 4.049700 12.994500 -0.242716 -4.980390 88.678500 7.823200 -80.380800 -5.348130 -0.000001 -0.000004 -66.093200 35.194400 -10.171200 -24.328900 0.000322 -0.000009 -3.016150 -4.107480 -36.325200 -22.291500 -0.000108 -0.000004 19.905800 5.437490 -4.197310 -2.192480 -6.469440 -0.000000 -177.367000 -8.345700 -11.400600 39.081100 -0.000007 -0.000012 -0.240887 0.250036 43.932900 40.985400 -0.000006 -0.000013 0.640525 1.113160 -80.675300 11.754300 -0.000000 0.000003 -0.000173 -0.001641 -16.639700 -2.192510 6.469440 -0.000001 173.828000 5.968070 166.274000 -39.081100 -0.002282 -0.040193 0.189705 -0.065504 70.657100 -40.985400 0.000008 0.000006 3.509430 -6.204240 -57.046300 -11.754300 -0.000006 -0.000006 -0.017576 -0.153472 -22.839200
0.000000 0.000000 0.000000 0.000000 0.000000 -0.000000 -2.653380 88.264000 492.538000 -88.451400 6.101360 -178.231000 15.735700 0.000005 -0.000001 87.944800 83.669400 -88.785700 8.984550 -0.406207 -0.000000 4.884490 -0.432037 -1.661420 16.377300 -0.000001 -0.000001 -3.180320 -5.260290 -1.021830 6.456720 -0.000001 -0.000000 -12.795000 -4.506120 -8.283340 12.994200 -0.242716 4.980390 -91.599400 5.220670 -72.941400 5.348090 -0.000007 -0.000001 -61.104100 27.203700 -12.311300 24.328600 0.000019 0.000005 6.849960 22.558400 -17.386900 22.291600 -0.000001 0.000005 10.619800 5.157040 3.774230 12.994500 -0.242716 -4.980390 88.690100 7.528610 -80.100400 -5.348130 -0.000001 -0.000004 -65.890600 35.304600 -8.379980 -24.328900 0.000322 -0.000009 -1.908540 -2.989570 -32.557600 -22.291500 -0.000108 -0.000004 17.389700 5.433740 -4.066800 -2.192480 -6.469440 -0.000000 -177.054000 -8.741240 -7.198080 39.081100 -0.000007 -0.000012 -0.214612 0.265017 39.001100 40.985400 -0.000006 -0.000013 0.948390 1.845150 -80.135500 11.754300 -0.000000 0.000003 -0.000159 -0.001524 -16.635400 -2.192510 6.469440 -0.000001 175.616000 8.489040 161.550000 -39.081100 -0.002282 -0.040193 0.171783 -0.060224 70.351100 -40.985400 0.000008 0.000006 3.136100 -6.051850 -58.292600 -11.754300 -0.000006 -0.000006 -0.017582 -0.153507 -22.840600
0.000000 0.000000 0.000000 0.000000 0.000000 -0.000000 -2.759510 88.906000 490.056000 -87.960400 5.299000 -179.006000 15.735700 0.000005 -0.000001 84.296000 83.957000 -84.896000 8.984550 -0.406207 -0.000000 4.254970 -1.180930 -1.154830 16.377300 -0.000001 -0.000001 -3.187760 -5.217460 -1.064870 6.456720 -0.000001 -0.000000 -12.706900 -4.210510 -8.141480 12.994200 -0.242716 4.980390 -91.350700 4.576560 -73.537900 5.348090 -0.000007 -0.000001 -59.345300 28.369900 -17.623200 24.328600 0.000019 0.000005 8.194720 22.381700 -20.716800 22.291600 -0.000001 0.000005 11.735500 5.168990 3.485250 12.994500 -0.242716 -4.980390 88.760500 7.161050 -80.153600 -5.348130 -0.000001 -0.000004 -66.061300 34.909100 -6.277790 -24.328900 0.000322 -0.000009 -1.011100 -1.836160 -28.812800 -22.291500 -0.000108 -0.000004 15.885700 5.414940 -3.429230 -2.192480 -6.469440 -0.000000 -176.596000 -8.309480 -3.784870 39.081100 -0.000007 -0.000012 -0.183259 0.269934 34.173100 40.985400 -0.000006 -0.000013 1.007980 2.214160 -79.489800 11.754300 -0.000000 0.000003 -0.000151 -0.001457 -16.632900 -2.192510 6.469440 -0.000001 178.189000 10.789900 156.911000 -39.081100 -0.002282 -0.040193 0.135516 -0.056014 67.063700 -40.985400 0.000008 0.000006 2.815830 -5.356650 -59.889800 -11.754300 -0.000006 -0.000006 -0.016644 -0.147936 -22.611600
0.000000 0.000000 0.000000 0.000000 0.000000 -0.000000 -2.896190 89.215900 487.677000 -87.675100 4.551250 -179.910000 15.735700 0.000005 -0.000001 81.302300 84.229200 -81.650900 8.984550 -0.406207 -0.000000 3.639100 -1.730530 -0.641445 16.377300 -0.000001 -0.000001 -3.424780 -5.262520 -0.937442 6.456720 -0.000001 -0.000000 -12.592600 -4.015600 -7.544410 12.994200 -0.242716 4.980390 -91.124700 3.978150 -74.200000 5.348090 -0.000007 -0.000001 -58.010300 28.214300 -22.399500 24.328600 0.000019 0.000005 9.223290 20.845800 -24.529200 22.291600 -0.000001 0.000005 12.081000 5.182930 3.143570 12.994500 -0.242716 -4.980390 88.798800 6.884250 -80.077200 -5.348130 -0.000001 -0.000004 -66.108900 33.709300 -4.084890 -24.328900 0.000322 -0.000009 -0.365134 -0.776524 -25.102900 -22.291500 -0.000108 -0.000004 15.012000 5.400700 -2.960320 -2.192480 -6.469440 -0.000000 -176.727000 -7.704200 -1.193220 39.081100 -0.000007 -0.000012 -0.015679 0.026702 30.422700 40.985400 -0.000006 -0.000013 2.913300 1.599220 -79.399600 11.754300 -0.000000 0.000003 -1.117060 -1.438630 -15.697300 -2.192510 6.469440 -0.000001 -179.249000 12.318000 152.842000 -39.081100 -0.002282 -0.040193 0.089488 -0.047390 61.226300 -40.985400 0.000008 0.000006 2.106320 -4.127490 -61.550500 -11.754300 -0.000006 -0.000006 -0.017088 -0.150589 -22.720700
